{
  "accessors": [
    {
      "bufferView": 2,
      "componentType": 5126,
      "count": 5400,
      "max": [
        295.00054931640625,
        295.052490234375,
        99.9663314819336
      ],
      "min": [
        -295.00054931640625,
        -295.052490234375,
        -0.00013000000035390258
      ],
      "type": "VEC3"
    },
    {
      "bufferView": 2,
      "byteOffset": 64800,
      "componentType": 5126,
      "count": 5400,
      "max": [
        0.9999240636825562,
        1.0,
        1.0
      ],
      "min": [
        -0.9999240636825562,
        -1.0,
        -1.0
      ],
      "type": "VEC3"
    },
    {
      "bufferView": 1,
      "componentType": 5126,
      "count": 5400,
      "max": [
        0.9985399842262268,
        0.9985399842262268
      ],
      "min": [
        0.0,
        0.0
      ],
      "type": "VEC2"
    },
    {
      "bufferView": 0,
      "componentType": 5125,
      "count": 20994,
      "type": "SCALAR"
    },
    {
      "bufferView": 2,
      "byteOffset": 129600,
      "componentType": 5126,
      "count": 3156,
      "max": [
        357.74444580078125,
        357.77984619140625,
        100.03999328613281
      ],
      "min": [
        -357.74444580078125,
        -357.77984619140625,
        24.671619415283203
      ],
      "type": "VEC3"
    },
    {
      "bufferView": 2,
      "byteOffset": 167472,
      "componentType": 5126,
      "count": 3156,
      "max": [
        0.39424413442611694,
        0.4084680676460266,
        0.9999301433563232
      ],
      "min": [
        -0.39424413442611694,
        -0.4084680676460266,
        0.91264808177948
      ],
      "type": "VEC3"
    },
    {
      "bufferView": 1,
      "byteOffset": 43200,
      "componentType": 5126,
      "count": 3156,
      "max": [
        0.9985399842262268,
        0.8544300198554993
      ],
      "min": [
        0.0,
        -9.999999747378752e-06
      ],
      "type": "VEC2"
    },
    {
      "bufferView": 0,
      "byteOffset": 83976,
      "componentType": 5125,
      "count": 13050,
      "type": "SCALAR"
    }
  ],
  "asset": {
    "extras": {
      "author": "Samura IT BD (https://sketchfab.com/samura2021)",
      "license": "CC-BY-4.0 (http://creativecommons.org/licenses/by/4.0/)",
      "source": "https://sketchfab.com/3d-models/volkswagen-logo-4ce5dfa16d1247b6ba877c25c02f8a1e",
      "title": "Volkswagen Logo"
    },
    "generator": "Sketchfab-12.68.0",
    "version": "2.0"
  },
  "bufferViews": [
    {
      "buffer": 0,
      "byteLength": 136176,
      "name": "floatBufferViews",
      "target": 34963
    },
    {
      "buffer": 0,
      "byteLength": 68448,
      "byteOffset": 136176,
      "byteStride": 8,
      "name": "floatBufferViews",
      "target": 34962
    },
    {
      "buffer": 0,
      "byteLength": 205344,
      "byteOffset": 204624,
      "byteStride": 12,
      "name": "floatBufferViews",
      "target": 34962
    }
  ],
  "buffers": [
    {
      "byteLength": 409968,
      "uri": "vwlogo.bin"
    }
  ],
  "materials": [
    {
      "doubleSided": true,
      "name": "mat2",
      "pbrMetallicRoughness": {
        "roughnessFactor": 0.400000006
      }
    },
    {
      "doubleSided": true,
      "name": "mat0",
      "pbrMetallicRoughness": {
        "baseColorFactor": [
          0.4895198171,
          0.4895198171,
          0.4895198171,
          1.0
        ],
        "metallicFactor": 0.9346417683,
        "roughnessFactor": 0.200000003
      }
    }
  ],
  "meshes": [
    {
      "name": "Obj_000001_0",
      "primitives": [
        {
          "attributes": {
            "NORMAL": 1,
            "POSITION": 0,
            "TEXCOORD_0": 2
          },
          "indices": 3,
          "material": 1,
          "mode": 4
        }
      ]
    },
    {
      "name": "Obj_000003_0",
      "primitives": [
        {
          "attributes": {
            "NORMAL": 5,
            "POSITION": 4,
            "TEXCOORD_0": 6
          },
          "indices": 7,
          "material": 0,
          "mode": 4
        }
      ]
    }
  ],
  "nodes": [
    {
      "children": [
        1
      ],
      "matrix": [
        1.0,
        0.0,
        0.0,
        0.0,
        0.0,
        2.220446049250313e-16,
        -1.0,
        0.0,
        0.0,
        1.0,
        2.220446049250313e-16,
        0.0,
        0.0,
        0.0,
        0.0,
        1.0
      ],
      "name": "Sketchfab_model"
    },
    {
      "children": [
        2,
        4,
        6
      ],
      "name": "Root"
    },
    {
      "children": [
        3
      ],
      "matrix": [
        -0.29086000000000006,
        0.9551700000000001,
        -0.05519000000000001,
        0.0,
        -0.7711,
        -0.19988000000000003,
        0.6045200000000001,
        0.0,
        0.5663900000000001,
        0.21839000000000003,
        0.7946700000000001,
        0.0,
        4.076250000000001,
        1.00545,
        5.903860000000001,
        1.0
      ],
      "name": "Lamp"
    },
    {
      "name": "Lamp"
    },
    {
      "children": [
        5
      ],
      "matrix": [
        0.010000000000000002,
        -0.0,
        0.0,
        0.0,
        -0.0,
        0.007070000000000002,
        0.007070000000000002,
        0.0,
        -0.0,
        -0.007070000000000002,
        0.007070000000000002,
        0.0,
        -0.0,
        -0.16230000000000003,
        0.51419,
        1.0
      ],
      "name": "Obj_000001"
    },
    {
      "mesh": 0,
      "name": "Obj_000001_0"
    },
    {
      "children": [
        7
      ],
      "matrix": [
        0.010000000000000002,
        -0.0,
        0.0,
        0.0,
        -0.0,
        0.007070000000000002,
        0.007070000000000002,
        0.0,
        -0.0,
        -0.007070000000000002,
        0.007070000000000002,
        0.0,
        0.0,
        0.16230000000000003,
        0.18959000000000004,
        1.0
      ],
      "name": "Obj_000003"
    },
    {
      "mesh": 1,
      "name": "Obj_000003_0"
    }
  ],
  "scene": 0,
  "scenes": [
    {
      "name": "Sketchfab_Scene",
      "nodes": [
        0
      ]
    }
  ]
}
